<?xml version="1.0" encoding="UTF-8"?>
<svg version="1.1" xmlns="http://www.w3.org/2000/svg" width="788" height="787">
<path d="M0 0 C1.08984192 0.00182281 2.17968384 0.00364563 3.30255127 0.00552368 C20.87442544 0.05480622 38.09642599 0.70603253 55.5 3.3125 C57.2315332 3.56990967 57.2315332 3.56990967 58.99804688 3.83251953 C113.72750089 12.25880724 165.86419269 31.42144244 212.5 61.3125 C214.10875 62.34117188 214.10875 62.34117188 215.75 63.390625 C231.90252556 73.95850076 247.67871223 85.65599372 261.8046875 98.828125 C263.91667413 100.77482572 266.05462968 102.65812931 268.23046875 104.53125 C272.99138323 108.68391237 277.47359633 113.09456794 281.9375 117.5625 C282.77643799 118.40151855 283.61537598 119.24053711 284.47973633 120.10498047 C289.52735095 125.19933682 294.27238809 130.33573863 298.6796875 135.99609375 C300.46551981 138.26862285 302.35238889 140.3772076 304.3125 142.5 C361.9278 206.9336787 392.38412413 297.8840119 394.5 383.3125 C394.52191406 384.09447754 394.54382813 384.87645508 394.56640625 385.68212891 C396.22519117 453.62319477 379.2187464 518.99051859 348.5 579.3125 C347.83750244 580.61453369 347.83750244 580.61453369 347.16162109 581.94287109 C334.87922437 605.75083543 318.74395673 627.86568563 301.5 648.3125 C301.07799316 648.82474121 300.65598633 649.33698242 300.22119141 649.86474609 C292.89474502 658.7507956 284.99363565 667.02922289 276.875 675.1875 C276.39407898 675.67359741 275.91315796 676.15969482 275.41766357 676.66052246 C268.79236968 683.34201796 261.85997059 689.44919214 254.5 695.3125 C252.66390858 696.87175805 250.82995036 698.43353933 249 700 C235.00255601 711.64948565 220.0986651 721.93640708 204.5 731.3125 C203.69401367 731.79928223 202.88802734 732.28606445 202.05761719 732.78759766 C173.70767861 749.78523961 143.31694088 763.28005392 111.5 772.3125 C110.03071045 772.73160645 110.03071045 772.73160645 108.53173828 773.15917969 C91.03708873 778.07946604 73.47813862 781.68353973 55.5 784.3125 C53.88472412 784.5602417 53.88472412 784.5602417 52.23681641 784.81298828 C17.26850996 789.9952645 -20.57365486 789.6124473 -55.5 784.3125 C-56.67272461 784.13557617 -57.84544922 783.95865234 -59.05371094 783.77636719 C-132.13434912 772.38027521 -204.3529227 741.07380049 -259.0234375 690.578125 C-260.38201073 689.33526621 -261.74836261 688.1000909 -263.14770508 686.90332031 C-268.98174125 681.91023306 -274.43708448 676.56156303 -279.86303711 671.13476562 C-281.42608734 669.57389673 -282.99697365 668.02122112 -284.56835938 666.46875 C-290.99805227 660.07443934 -296.85755898 653.42378327 -302.5 646.3125 C-303.3632196 645.28480828 -304.23160885 644.26138925 -305.109375 643.24609375 C-368.63209372 569.17489437 -397.94796073 468.59706038 -392.84092712 363.40496826 C-391.47942334 346.21427653 -388.90933519 329.21341451 -385.5 312.3125 C-385.19352539 310.77698486 -385.19352539 310.77698486 -384.88085938 309.21044922 C-379.52331261 283.12429891 -370.84087925 256.83274883 -359.60205078 232.68261719 C-358.45086577 230.20682985 -357.33279584 227.71751278 -356.21484375 225.2265625 C-342.19855965 194.45995369 -323.19045321 166.16990133 -301.5 140.3125 C-300.73816406 139.36503906 -299.97632813 138.41757813 -299.19140625 137.44140625 C-292.13103697 128.79275932 -284.30733839 120.9033831 -276.4375 113 C-275.88305206 112.44037567 -275.32860413 111.88075134 -274.75735474 111.3041687 C-267.66141266 104.15610546 -260.40110243 97.57217913 -252.5 91.3125 C-251.47225274 90.44934652 -250.44884552 89.58094173 -249.43359375 88.703125 C-197.17021967 43.88257884 -129.96945413 15.28766143 -62.3125 4.5625 C-61.06774902 4.36374268 -59.82299805 4.16498535 -58.54052734 3.96020508 C-39.05458882 1.01700331 -19.6947811 -0.06886023 0 0 Z " fill="#8B8B8C" transform="translate(393.5,-0.3125)"/>
<path d="M0 0 C1.08984192 0.00182281 2.17968384 0.00364563 3.30255127 0.00552368 C20.87442544 0.05480622 38.09642599 0.70603253 55.5 3.3125 C57.2315332 3.56990967 57.2315332 3.56990967 58.99804688 3.83251953 C113.72750089 12.25880724 165.86419269 31.42144244 212.5 61.3125 C214.10875 62.34117188 214.10875 62.34117188 215.75 63.390625 C231.90252556 73.95850076 247.67871223 85.65599372 261.8046875 98.828125 C263.91667413 100.77482572 266.05462968 102.65812931 268.23046875 104.53125 C272.99138323 108.68391237 277.47359633 113.09456794 281.9375 117.5625 C282.77643799 118.40151855 283.61537598 119.24053711 284.47973633 120.10498047 C289.52735095 125.19933682 294.27238809 130.33573863 298.6796875 135.99609375 C300.46551981 138.26862285 302.35238889 140.3772076 304.3125 142.5 C361.9278 206.9336787 392.38412413 297.8840119 394.5 383.3125 C394.52191406 384.09447754 394.54382813 384.87645508 394.56640625 385.68212891 C396.22519117 453.62319477 379.2187464 518.99051859 348.5 579.3125 C347.83750244 580.61453369 347.83750244 580.61453369 347.16162109 581.94287109 C334.87922437 605.75083543 318.74395673 627.86568563 301.5 648.3125 C301.07799316 648.82474121 300.65598633 649.33698242 300.22119141 649.86474609 C292.89474502 658.7507956 284.99363565 667.02922289 276.875 675.1875 C276.39407898 675.67359741 275.91315796 676.15969482 275.41766357 676.66052246 C268.79236968 683.34201796 261.85997059 689.44919214 254.5 695.3125 C252.66390858 696.87175805 250.82995036 698.43353933 249 700 C235.00255601 711.64948565 220.0986651 721.93640708 204.5 731.3125 C203.69401367 731.79928223 202.88802734 732.28606445 202.05761719 732.78759766 C173.70767861 749.78523961 143.31694088 763.28005392 111.5 772.3125 C110.03071045 772.73160645 110.03071045 772.73160645 108.53173828 773.15917969 C91.03708873 778.07946604 73.47813862 781.68353973 55.5 784.3125 C53.88472412 784.5602417 53.88472412 784.5602417 52.23681641 784.81298828 C17.26850996 789.9952645 -20.57365486 789.6124473 -55.5 784.3125 C-56.67272461 784.13557617 -57.84544922 783.95865234 -59.05371094 783.77636719 C-132.13434912 772.38027521 -204.3529227 741.07380049 -259.0234375 690.578125 C-260.38201073 689.33526621 -261.74836261 688.1000909 -263.14770508 686.90332031 C-268.98174125 681.91023306 -274.43708448 676.56156303 -279.86303711 671.13476562 C-281.42608734 669.57389673 -282.99697365 668.02122112 -284.56835938 666.46875 C-290.99805227 660.07443934 -296.85755898 653.42378327 -302.5 646.3125 C-303.3632196 645.28480828 -304.23160885 644.26138925 -305.109375 643.24609375 C-368.63209372 569.17489437 -397.94796073 468.59706038 -392.84092712 363.40496826 C-391.47942334 346.21427653 -388.90933519 329.21341451 -385.5 312.3125 C-385.19352539 310.77698486 -385.19352539 310.77698486 -384.88085938 309.21044922 C-379.52331261 283.12429891 -370.84087925 256.83274883 -359.60205078 232.68261719 C-358.45086577 230.20682985 -357.33279584 227.71751278 -356.21484375 225.2265625 C-342.19855965 194.45995369 -323.19045321 166.16990133 -301.5 140.3125 C-300.73816406 139.36503906 -299.97632813 138.41757813 -299.19140625 137.44140625 C-292.13103697 128.79275932 -284.30733839 120.9033831 -276.4375 113 C-275.88305206 112.44037567 -275.32860413 111.88075134 -274.75735474 111.3041687 C-267.66141266 104.15610546 -260.40110243 97.57217913 -252.5 91.3125 C-251.47225274 90.44934652 -250.44884552 89.58094173 -249.43359375 88.703125 C-197.17021967 43.88257884 -129.96945413 15.28766143 -62.3125 4.5625 C-61.06774902 4.36374268 -59.82299805 4.16498535 -58.54052734 3.96020508 C-39.05458882 1.01700331 -19.6947811 -0.06886023 0 0 Z M-71.5 67.3125 C-72.60214844 67.84875 -73.70429688 68.385 -74.83984375 68.9375 C-81.64676348 72.43062719 -87.66494892 76.37932832 -93.5 81.3125 C-94.46292969 82.07433594 -95.42585937 82.83617188 -96.41796875 83.62109375 C-121.37282774 104.47888634 -129.20790534 140.44284905 -133.19140625 171.00146484 C-133.47661853 173.13739796 -133.79538662 175.26508278 -134.125 177.39453125 C-136.85481101 196.0204002 -136.75749208 215.76377084 -133.5 234.3125 C-133.34402344 235.22064453 -133.18804687 236.12878906 -133.02734375 237.06445312 C-130.59120156 250.84219065 -127.09920479 263.50291481 -121.5 276.3125 C-120.86598454 277.80808436 -120.23317865 279.30418204 -119.6015625 280.80078125 C-115.99537825 289.27801963 -115.99537825 289.27801963 -111.5 297.3125 C-107.50474837 296.70369975 -104.97085383 294.6668297 -101.75 292.3125 C-96.71804246 288.72500171 -91.5687424 285.47631924 -86.1875 282.4375 C-85.54264648 282.06882812 -84.89779297 281.70015625 -84.23339844 281.3203125 C-79.7843034 278.84429439 -75.30162825 277.00719232 -70.5 275.3125 C-71.23863281 275.78558594 -71.97726562 276.25867188 -72.73828125 276.74609375 C-91.21900728 288.79261529 -105.61641246 302.76076715 -117.5 321.3125 C-117.95890625 320.90257812 -118.4178125 320.49265625 -118.890625 320.0703125 C-119.81101562 319.26207031 -119.81101562 319.26207031 -120.75 318.4375 C-121.35328125 317.90382813 -121.9565625 317.37015625 -122.578125 316.8203125 C-124.45404697 315.24397694 -124.45404697 315.24397694 -126.67480469 314.23022461 C-129.08981676 313.01593483 -129.34624894 311.72762816 -130.5 309.3125 C-132.04656045 307.5912355 -133.63658503 305.90876244 -135.25 304.25 C-147.60933771 291.11405068 -157.54975192 275.91222618 -166.5 260.3125 C-166.99242187 259.45785156 -167.48484375 258.60320312 -167.9921875 257.72265625 C-175.48058485 244.62746394 -181.93740757 231.33113012 -187.5 217.3125 C-187.88285156 216.35585449 -188.26570312 215.39920898 -188.66015625 214.41357422 C-196.97581954 193.47690218 -202.5486165 172.52689225 -206.49682617 150.39233398 C-206.72990479 149.11302002 -206.9629834 147.83370605 -207.203125 146.515625 C-207.40583008 145.36739258 -207.60853516 144.21916016 -207.81738281 143.03613281 C-208.28369159 140.18614885 -208.28369159 140.18614885 -210.5 138.3125 C-214.03030106 137.86625408 -215.99737144 138.04492421 -219.15625 139.7265625 C-226.86117833 145.71693261 -233.83875636 152.3698227 -240.75 159.25 C-241.67232422 160.16668457 -242.59464844 161.08336914 -243.54492188 162.02783203 C-249.60897072 168.15609101 -255.16958336 174.5394533 -260.5 181.3125 C-261.16773438 182.15707764 -261.83546875 183.00165527 -262.5234375 183.87182617 C-276.09156116 201.17690452 -287.74075197 219.15507282 -298.5 238.3125 C-298.87785645 238.98023438 -299.25571289 239.64796875 -299.64501953 240.3359375 C-313.77322994 265.42999495 -324.31716464 295.53662698 -316.40869141 324.43212891 C-302.90051997 369.45558005 -263.11977672 400.77708243 -223.41064453 422.79003906 C-197.66301079 436.5467761 -167.76825208 444.50118417 -138.5 443.3125 C-138.60610596 442.24261841 -138.60610596 442.24261841 -138.71435547 441.15112305 C-139.42339769 433.4582019 -139.65217707 425.847817 -139.625 418.125 C-139.62886719 417.01447266 -139.63273438 415.90394531 -139.63671875 414.75976562 C-139.62934615 408.52622812 -139.32222839 402.49226414 -138.5 396.3125 C-138.46261719 397.29347656 -138.42523438 398.27445312 -138.38671875 399.28515625 C-137.42441067 420.54099986 -131.84745759 440.66433467 -121.5 459.3125 C-182.18947211 480.98731147 -255.11112288 473.63358208 -314.73828125 452.14550781 C-316.32189453 451.58234863 -316.32189453 451.58234863 -317.9375 451.0078125 C-318.88496094 450.65992676 -319.83242188 450.31204102 -320.80859375 449.95361328 C-323.79995496 449.24104846 -325.59243882 449.35292789 -328.5 450.3125 C-334.80288106 462.91826211 -324.38382947 485.6206684 -320.25585938 498.03515625 C-319.77684925 499.47837538 -319.30348577 500.92349114 -318.83789062 502.37109375 C-303.87044354 548.88531391 -276.68547281 604.81201972 -231.5 628.3125 C-205.34899647 641.45610334 -173.6857363 638.10075448 -146.72192383 629.26904297 C-135.09372749 625.2943017 -123.80049096 620.69093982 -112.72265625 615.37695312 C-110.60462192 614.36260452 -108.47578548 613.37511175 -106.34375 612.390625 C-77.42909872 598.77564476 -52.75865752 577.00042942 -34.5 550.9375 C-34.03037842 550.27113525 -33.56075684 549.60477051 -33.0769043 548.91821289 C-30.50866992 545.1601323 -28.71114035 541.75793559 -27.5 537.3125 C-28.1391333 537.01593506 -28.7782666 536.71937012 -29.43676758 536.41381836 C-43.5826749 529.82361882 -56.69524626 523.63326354 -68.5 513.3125 C-67.9831665 513.55895264 -67.46633301 513.80540527 -66.93383789 514.05932617 C-44.89236281 524.48747244 -25.01607424 529.84674859 -0.5 529.3125 C-12.42187563 579.0369059 -36.04620305 622.77839979 -69.5 661.3125 C-70.19351562 662.11945312 -70.88703125 662.92640625 -71.6015625 663.7578125 C-81.60417135 675.15074536 -92.35316277 686.11505942 -104.25 695.52734375 C-109.89517681 699.85123474 -109.89517681 699.85123474 -113.375 705.875 C-111.86156999 710.09098359 -108.38507694 711.42293985 -104.5 713.3125 C-95.41764507 717.43970272 -86.11900638 719.74230731 -76.42724609 721.85864258 C-74.61693442 722.28496249 -72.83003822 722.80744342 -71.046875 723.3359375 C-64.33085462 725.18506205 -57.40804552 725.92824773 -50.51907349 726.8896637 C-48.58143543 727.16103957 -46.64427167 727.43583647 -44.70773315 727.71495056 C-29.10888888 729.9347538 -13.7997009 730.76079564 1.95068359 730.64868164 C5.52594217 730.62482691 9.10046161 730.62818887 12.67578125 730.63476562 C42.22973972 730.59829972 72.06816213 727.05982626 95.5 707.3125 C96.22960937 706.72855469 96.95921875 706.14460937 97.7109375 705.54296875 C114.68902672 691.39456106 123.00883827 671.88014756 129.5 651.3125 C129.89058594 650.10464844 130.28117187 648.89679687 130.68359375 647.65234375 C141.87115918 609.73650916 141.72910139 567.29331059 131.5 529.3125 C131.21511719 528.24902344 130.93023438 527.18554688 130.63671875 526.08984375 C126.96373053 513.9916124 121.38400688 500.94321226 114.5 490.3125 C110.4078823 490.88166745 107.73443871 493.24601795 104.5625 495.6875 C98.59663192 500.10135135 92.36914491 503.78079528 85.8125 507.25 C84.95857666 507.71003418 84.10465332 508.17006836 83.22485352 508.64404297 C76.05439925 512.35941099 68.66045679 515.3125 60.5 515.3125 C61.77230469 514.63767578 61.77230469 514.63767578 63.0703125 513.94921875 C83.11853731 503.06606171 107.65402502 484.64654517 115.5 462.3125 C126.54754295 471.04728629 135.71330354 480.32912942 144.5 491.3125 C145.2425 492.199375 145.985 493.08625 146.75 494 C155.74010884 504.73818556 163.37002108 516.2729031 170.5 528.3125 C170.84498535 528.89273926 171.1899707 529.47297852 171.54541016 530.07080078 C190.41394465 562.01875836 203.23129935 596.76536872 210.54760742 633.08691406 C210.77552979 634.21581055 211.00345215 635.34470703 211.23828125 636.5078125 C211.53279175 638.00852295 211.53279175 638.00852295 211.83325195 639.53955078 C212.49471008 642.29049966 213.2972826 644.7518942 214.5 647.3125 C216.27205618 648.49167276 216.27205618 648.49167276 218.5 648.3125 C225.57958074 645.01664618 231.26403851 639.99940554 236.5 634.3125 C239.07510204 631.71156082 241.67607524 629.14085123 244.296875 626.5859375 C274.74609491 596.81826358 302.16673895 554.8529386 315.5 514.3125 C315.88309326 513.15596924 315.88309326 513.15596924 316.27392578 511.97607422 C324.07285842 487.52874656 322.00063554 463.14879474 310.54345703 440.27392578 C288.21051998 398.29385646 239.19422326 364.93369502 194.69458008 351.06689453 C175.84796401 345.50333376 158.03461027 344.13877323 138.5 344.3125 C138.57001221 344.93906494 138.64002441 345.56562988 138.7121582 346.21118164 C139.51585894 354.06698327 139.68338693 361.85702623 139.6875 369.75 C139.69974609 370.98298828 139.71199219 372.21597656 139.72460938 373.48632812 C139.73978607 383.06282061 139.32700877 392.41829463 135.5 401.3125 C135.46559814 400.4781543 135.43119629 399.64380859 135.39575195 398.78417969 C134.43605134 377.14999837 132.45386454 357.50180709 123.05078125 337.6953125 C121.63410638 334.60503432 120.50675753 331.55594546 119.5 328.3125 C168.43741827 314.27062785 216.0590934 311.80850332 266.5 319.3125 C267.47130859 319.45671387 268.44261719 319.60092773 269.44335938 319.74951172 C285.85494265 322.35127117 302.05489674 328.03291029 317.73388672 333.42456055 C320.43792038 334.29257206 322.49084092 334.55287606 325.3125 334.5 C326.08207031 334.49355469 326.85164062 334.48710937 327.64453125 334.48046875 C329.51517911 334.5108129 329.51517911 334.5108129 330.5 333.3125 C331.16854657 325.55573795 329.99980848 318.37362503 328.125 310.875 C327.85953369 309.8022583 327.59406738 308.7295166 327.32055664 307.62426758 C319.7068494 278.07181973 307.18966119 249.46727739 291.5 223.3125 C290.93522949 222.36890625 290.37045898 221.4253125 289.78857422 220.453125 C282.37800885 208.15615103 274.8167948 196.25345872 265.5 185.3125 C264.77941406 184.42949219 264.05882812 183.54648438 263.31640625 182.63671875 C251.22268506 168.36834677 234.5104067 157.4656192 216.5 152.3125 C215.60655884 152.04759766 215.60655884 152.04759766 214.69506836 151.77734375 C207.45852297 149.87702407 200.25145256 150.01797759 192.8125 150.0625 C191.53955078 150.05476563 190.26660156 150.04703125 188.95507812 150.0390625 C175.79649912 150.06582118 163.60489092 151.85138473 151.0625 155.8125 C149.9485083 156.16143311 148.8345166 156.51036621 147.68676758 156.86987305 C112.65832426 168.1636847 82.22330224 186.20645813 55.5 211.3125 C54.52933594 212.20195312 54.52933594 212.20195312 53.5390625 213.109375 C45.49770706 220.73544917 39.16372865 230.15663719 33 239.3125 C32.57871826 239.93511719 32.15743652 240.55773437 31.72338867 241.19921875 C29.55118927 244.48042759 27.89659582 247.64448323 26.5 251.3125 C27.16942627 251.60906494 27.83885254 251.90562988 28.52856445 252.21118164 C31.62729252 253.59014365 34.71984047 254.98248408 37.8125 256.375 C38.86501953 256.84099609 39.91753906 257.30699219 41.00195312 257.78710938 C50.68857949 262.16844499 59.5544358 267.38442632 67.6875 274.25 C69.07001953 275.40822266 69.07001953 275.40822266 70.48046875 276.58984375 C71.14691406 277.15832031 71.81335938 277.72679687 72.5 278.3125 C71.55640625 277.79300781 70.6128125 277.27351562 69.640625 276.73828125 C61.75744258 272.43948979 53.88897799 268.55157761 45.5 265.3125 C44.63375 264.95414063 43.7675 264.59578125 42.875 264.2265625 C30.21180133 259.21404636 16.98227513 257.93753528 3.5 257.3125 C7.92389616 240.90425492 12.54747097 224.85719111 19.5 209.3125 C20.10086426 207.96260986 20.10086426 207.96260986 20.71386719 206.58544922 C30.41983665 185.02692651 42.2127906 165.13957033 56.5 146.3125 C57.51707031 144.96285156 57.51707031 144.96285156 58.5546875 143.5859375 C60.17611914 141.47135154 61.82820833 139.38741874 63.5 137.3125 C64.15871094 136.48105469 64.81742187 135.64960938 65.49609375 134.79296875 C76.60914002 120.94623195 88.96283056 107.57214452 102.484375 96.0390625 C104.98365746 93.89820427 107.42895822 91.70143761 109.875 89.5 C110.70773437 88.75105469 111.54046875 88.00210938 112.3984375 87.23046875 C113.79498547 85.95592404 115.16306125 84.64943875 116.5 83.3125 C116.29891537 80.75558022 115.88053884 79.65123062 113.95336914 77.93579102 C109.09350077 75.03592379 104.33600115 72.93177237 98.9375 71.25 C98.14939941 70.99814941 97.36129883 70.74629883 96.54931641 70.48681641 C94.20405157 69.74638076 91.85349451 69.02628573 89.5 68.3125 C88.29214844 67.93996094 87.08429688 67.56742188 85.83984375 67.18359375 C78.32574884 65.02339735 70.76497863 63.55561073 63.0625 62.25 C62.17739746 62.09966309 61.29229492 61.94932617 60.38037109 61.79443359 C57.09169321 61.2631549 53.79754359 60.78589326 50.5 60.3125 C49.69912964 60.19070374 48.89825928 60.06890747 48.07312012 59.94342041 C32.32858294 57.57667208 16.82466604 56.78272262 0.91015625 56.81152344 C-2.86535621 56.81249751 -6.63883962 56.77063125 -10.4140625 56.7265625 C-30.93778395 56.6273065 -52.75560914 58.1358302 -71.5 67.3125 Z " fill="#FDFDFD" transform="translate(393.5,-0.3125)"/>
<path d="M0 0 C1.08984192 0.00182281 2.17968384 0.00364563 3.30255127 0.00552368 C20.87442544 0.05480622 38.09642599 0.70603253 55.5 3.3125 C57.2315332 3.56990967 57.2315332 3.56990967 58.99804688 3.83251953 C113.72750089 12.25880724 165.86419269 31.42144244 212.5 61.3125 C214.10875 62.34117188 214.10875 62.34117188 215.75 63.390625 C231.90252556 73.95850076 247.67871223 85.65599372 261.8046875 98.828125 C263.91667413 100.77482572 266.05462968 102.65812931 268.23046875 104.53125 C272.99138323 108.68391237 277.47359633 113.09456794 281.9375 117.5625 C282.77643799 118.40151855 283.61537598 119.24053711 284.47973633 120.10498047 C289.52735095 125.19933682 294.27238809 130.33573863 298.6796875 135.99609375 C300.46551981 138.26862285 302.35238889 140.3772076 304.3125 142.5 C361.9278 206.9336787 392.38412413 297.8840119 394.5 383.3125 C394.52191406 384.09447754 394.54382813 384.87645508 394.56640625 385.68212891 C396.22519117 453.62319477 379.2187464 518.99051859 348.5 579.3125 C347.83750244 580.61453369 347.83750244 580.61453369 347.16162109 581.94287109 C334.87922437 605.75083543 318.74395673 627.86568563 301.5 648.3125 C301.07799316 648.82474121 300.65598633 649.33698242 300.22119141 649.86474609 C292.89474502 658.7507956 284.99363565 667.02922289 276.875 675.1875 C276.39407898 675.67359741 275.91315796 676.15969482 275.41766357 676.66052246 C268.79236968 683.34201796 261.85997059 689.44919214 254.5 695.3125 C252.66390858 696.87175805 250.82995036 698.43353933 249 700 C235.00255601 711.64948565 220.0986651 721.93640708 204.5 731.3125 C203.69401367 731.79928223 202.88802734 732.28606445 202.05761719 732.78759766 C173.70767861 749.78523961 143.31694088 763.28005392 111.5 772.3125 C110.03071045 772.73160645 110.03071045 772.73160645 108.53173828 773.15917969 C91.03708873 778.07946604 73.47813862 781.68353973 55.5 784.3125 C53.88472412 784.5602417 53.88472412 784.5602417 52.23681641 784.81298828 C17.26850996 789.9952645 -20.57365486 789.6124473 -55.5 784.3125 C-56.67272461 784.13557617 -57.84544922 783.95865234 -59.05371094 783.77636719 C-132.13434912 772.38027521 -204.3529227 741.07380049 -259.0234375 690.578125 C-260.38201073 689.33526621 -261.74836261 688.1000909 -263.14770508 686.90332031 C-268.98174125 681.91023306 -274.43708448 676.56156303 -279.86303711 671.13476562 C-281.42608734 669.57389673 -282.99697365 668.02122112 -284.56835938 666.46875 C-290.99805227 660.07443934 -296.85755898 653.42378327 -302.5 646.3125 C-303.3632196 645.28480828 -304.23160885 644.26138925 -305.109375 643.24609375 C-368.63209372 569.17489437 -397.94796073 468.59706038 -392.84092712 363.40496826 C-391.47942334 346.21427653 -388.90933519 329.21341451 -385.5 312.3125 C-385.19352539 310.77698486 -385.19352539 310.77698486 -384.88085938 309.21044922 C-379.52331261 283.12429891 -370.84087925 256.83274883 -359.60205078 232.68261719 C-358.45086577 230.20682985 -357.33279584 227.71751278 -356.21484375 225.2265625 C-342.19855965 194.45995369 -323.19045321 166.16990133 -301.5 140.3125 C-300.73816406 139.36503906 -299.97632813 138.41757813 -299.19140625 137.44140625 C-292.13103697 128.79275932 -284.30733839 120.9033831 -276.4375 113 C-275.88305206 112.44037567 -275.32860413 111.88075134 -274.75735474 111.3041687 C-267.66141266 104.15610546 -260.40110243 97.57217913 -252.5 91.3125 C-251.47225274 90.44934652 -250.44884552 89.58094173 -249.43359375 88.703125 C-197.17021967 43.88257884 -129.96945413 15.28766143 -62.3125 4.5625 C-61.06774902 4.36374268 -59.82299805 4.16498535 -58.54052734 3.96020508 C-39.05458882 1.01700331 -19.6947811 -0.06886023 0 0 Z M-48.80859375 25.84619141 C-51.82435399 26.36869703 -54.84666351 26.81805117 -57.875 27.26171875 C-94.60485672 32.7194593 -131.65906936 43.63734257 -164.48291016 61.24511719 C-166.75791999 62.44898344 -169.05465446 63.60405401 -171.35546875 64.7578125 C-190.58374204 74.48015552 -208.59865089 85.95074553 -225.5 99.3125 C-226.16725098 99.8369873 -226.83450195 100.36147461 -227.52197266 100.90185547 C-236.38302114 107.89366168 -244.82911374 115.21110078 -253.0390625 122.953125 C-255.27706677 125.03554608 -257.57966454 127.04371098 -259.875 129.0625 C-263.37354648 132.2022212 -266.51401105 135.44592627 -269.5390625 139.0390625 C-271.53296627 141.35071986 -273.60862663 143.57256483 -275.70336914 145.79272461 C-282.44227433 152.95926041 -288.60186021 160.4430143 -294.5 168.3125 C-295.01175781 168.99441406 -295.52351563 169.67632812 -296.05078125 170.37890625 C-337.49478833 225.94009335 -363.32713538 291.13677398 -369.5 360.3125 C-369.5942627 361.33206787 -369.68852539 362.35163574 -369.78564453 363.40209961 C-370.51258149 371.89191707 -370.74273396 380.35624847 -370.75 388.875 C-370.75067474 389.59949341 -370.75134949 390.32398682 -370.75204468 391.07043457 C-370.62531511 478.42619168 -341.76282805 565.05295046 -272.1953125 645.39453125 C-269.53388961 648.27581082 -266.9237672 651.1983045 -264.3125 654.125 C-260.96270663 657.8108228 -257.54947942 661.18653431 -253.73828125 664.38671875 C-251.43739037 666.36636832 -249.22935015 668.43085499 -247.02197266 670.51367188 C-239.85420221 677.25430865 -232.36652065 683.4076206 -224.5 689.3125 C-223.8287207 689.81894043 -223.15744141 690.32538086 -222.46582031 690.84716797 C-195.12475517 711.36243833 -165.30227871 727.82092211 -133.5 740.3125 C-132.08557617 740.87275879 -132.08557617 740.87275879 -130.64257812 741.44433594 C-104.91233999 751.53373024 -77.75866321 758.05067035 -50.4375 762.0625 C-49.6539917 762.17819336 -48.8704834 762.29388672 -48.06323242 762.41308594 C-32.99364203 764.47479515 -17.86595059 764.5175901 -2.6875 764.5 C-1.12239182 764.49859512 -1.12239182 764.49859512 0.47433472 764.49716187 C71.70247643 764.3586428 142.84347645 745.104553 202.5 705.3125 C203.13631348 704.89323242 203.77262695 704.47396484 204.42822266 704.04199219 C218.34646408 694.8415058 231.95150231 684.86636662 244.1640625 673.47265625 C246.09608561 671.68601949 248.06101557 669.97319943 250.05859375 668.26171875 C255.05357304 663.90272811 259.7504601 659.24810709 264.43579102 654.56201172 C265.92641615 653.07356763 267.42487017 651.59332723 268.92382812 650.11328125 C275.23303922 643.84088207 280.97407414 637.29720389 286.5 630.3125 C287.50107454 629.09272258 288.50460355 627.87495095 289.51171875 626.66015625 C303.0277684 610.15236291 314.54174394 592.60940956 324.98242188 574.01464844 C326.28141311 571.70170845 327.59922601 569.40098889 328.921875 567.1015625 C341.55059756 544.6825408 350.25025259 519.9076104 357.5 495.3125 C357.85046387 494.1255957 358.20092773 492.93869141 358.56201172 491.71582031 C360.44384878 485.24521598 362.213301 478.80334451 363.5 472.1875 C363.74036987 470.96619385 363.74036987 470.96619385 363.9855957 469.72021484 C365.4244635 462.15759838 366.58032929 454.55487506 367.6875 446.9375 C367.85443359 445.79780762 368.02136719 444.65811523 368.19335938 443.48388672 C373.35888554 406.6715413 372.99500098 366.92893527 366.5 330.3125 C366.31808105 329.24950684 366.13616211 328.18651367 365.94873047 327.09130859 C355.66524018 268.54250018 330.06693788 213.00784311 293.5 166.3125 C292.80777344 165.41917969 292.11554687 164.52585938 291.40234375 163.60546875 C289.46741545 161.1460835 287.49101664 158.72665491 285.5 156.3125 C284.74847656 155.37535156 283.99695313 154.43820313 283.22265625 153.47265625 C276.29487988 145.00068129 268.65125831 137.24807887 260.9375 129.5 C260.14184128 128.69657669 260.14184128 128.69657669 259.33010864 127.87692261 C252.38711211 120.88061424 245.22305046 114.45557233 237.5 108.3125 C236.28662407 107.28849755 235.07764501 106.25924061 233.875 105.22265625 C201.50017784 77.7038189 162.44187437 57.23037593 122.5 43.3125 C121.61151367 42.99587402 120.72302734 42.67924805 119.80761719 42.35302734 C99.25387666 35.03968414 78.60865654 30.26360498 57.0625 27 C56.21899994 26.87076141 55.37549988 26.74152283 54.50643921 26.60836792 C35.29694872 23.69670561 16.35142831 23.07534277 -3.0625 23.0625 C-4.12614777 23.06149292 -5.18979553 23.06048584 -6.28567505 23.05944824 C-20.63864525 23.06863025 -34.63987569 23.34503412 -48.80859375 25.84619141 Z " fill="#5F5C50" transform="translate(393.5,-0.3125)"/>
<path d="M0 0 C-3.63 1.98 -7.26 3.96 -11 6 C-10.67 4.68 -10.34 3.36 -10 2 C-3.87234043 -1.29078014 -3.87234043 -1.29078014 0 0 Z " fill="#EBEBEB" transform="translate(325,275)"/>
<path d="M0 0 C2.125 0.9375 2.125 0.9375 4 2 C0.5980513 4.09350689 -2.05272412 4.17942163 -6 4 C-4.03617993 2.49440461 -2.21736634 1.10868317 0 0 Z " fill="#E0E0E0" transform="translate(458,512)"/>
</svg>
