<?xml version="1.0" encoding="UTF-8"?>
<svg version="1.1" xmlns="http://www.w3.org/2000/svg" width="1475" height="1220">
<path d="M0 0 C1.92536128 -0.00679667 1.92536128 -0.00679667 3.88961875 -0.01373065 C7.42765747 -0.02588875 10.96560111 -0.02570873 14.50365591 -0.02334189 C18.32933073 -0.02293189 22.15497582 -0.03399038 25.9806366 -0.04345703 C33.46704161 -0.06002899 40.95341511 -0.06556487 48.43983693 -0.06668179 C54.52975946 -0.06763417 60.61967165 -0.07175392 66.70959091 -0.07808304 C84.00078552 -0.09568585 101.29195536 -0.10492353 118.58315898 -0.10342209 C119.51420498 -0.10334218 120.44525098 -0.10326227 121.4045105 -0.10317993 C122.802798 -0.10305729 122.802798 -0.10305729 124.22933374 -0.10293217 C139.32697093 -0.10211977 154.42450824 -0.12124841 169.52211656 -0.14945666 C185.04888789 -0.17823627 200.57561058 -0.19199414 216.10240924 -0.19026911 C224.80956867 -0.18960691 233.5166234 -0.19502419 242.2237587 -0.21662521 C249.63891784 -0.23490406 257.05392485 -0.23912972 264.46909685 -0.22560637 C268.24635206 -0.21911004 272.02331597 -0.21883727 275.80054283 -0.23631287 C300.46303009 -0.3431746 320.68302604 1.19298032 339.94650269 18.26742554 C340.56009644 18.78691772 341.17369019 19.30640991 341.80587769 19.84164429 C347.8027792 25.30212571 351.80688589 32.37613364 355.94650269 39.26742554 C356.37060425 39.95578491 356.79470581 40.64414429 357.23165894 41.35336304 C362.9414422 51.57086994 366.07231575 65.18125961 366.07070118 76.7706188 C366.07294848 78.0713112 366.07519577 79.37200361 366.07751116 80.71211094 C366.07494562 82.15144455 366.07228871 83.59077801 366.06955051 85.03011131 C366.07029027 86.56857888 366.07146898 88.1070463 366.07304701 89.64551324 C366.07612048 93.88916095 366.07293721 98.13278477 366.06876888 102.3764307 C366.06533885 106.98703865 366.06770468 111.59764413 366.06934637 116.20825255 C366.07142206 124.29409722 366.06977299 132.37993454 366.06570816 140.46577835 C366.05968063 152.48919047 366.05937166 164.51259793 366.06025015 176.53601128 C366.06156506 196.75992379 366.05821882 216.98383304 366.05223274 237.2077446 C366.04631939 257.23720694 366.04246754 277.26666792 366.04137993 297.29613113 C366.04131119 298.5406581 366.04124245 299.78518507 366.04117163 301.06742498 C366.0408333 307.38753156 366.04053192 313.70763814 366.04024475 320.02774473 C366.03814333 364.8141822 366.03140392 409.60061804 366.02194214 454.38705444 C366.01965049 465.24406941 366.01737513 476.10108438 366.01516724 486.95809937 C366.01496181 487.96812287 366.01496181 487.96812287 366.01475224 488.99855089 C366.00840937 520.29482184 366.00469374 551.59109293 366.00163442 582.88736435 C366.00143385 584.9349176 366.00123155 586.98247085 366.00102868 589.0300241 C365.99869179 612.62496639 365.99651451 636.21990869 365.99438373 659.814851 C365.98499323 762.63237753 365.96492363 865.44989942 365.94650269 968.26742554 C536.22650269 968.26742554 706.50650269 968.26742554 881.94650269 968.26742554 C880.23301427 1035.09347358 874.92171416 1105.16616858 844.94650269 1166.26742554 C844.60619019 1166.96190796 844.26587769 1167.65639038 843.91525269 1168.37191772 C833.22079626 1189.89660005 818.73288366 1209.78370832 795.94650269 1219.26742554 C791.32742405 1220.49881317 786.78970627 1220.40726127 782.04626304 1220.39507604 C780.69169906 1220.3975522 780.69169906 1220.3975522 779.30977016 1220.4000784 C776.26181002 1220.40441716 773.21389788 1220.40159775 770.16593647 1220.3988533 C767.95801648 1220.40050228 765.75009679 1220.40258825 763.54217759 1220.4050734 C757.43504448 1220.41065828 751.32792535 1220.40996432 745.22079051 1220.40829581 C739.27472262 1220.40764194 733.3286584 1220.41167122 727.38259215 1220.41555983 C715.06794462 1220.42343897 702.75329999 1220.42652217 690.43865013 1220.42700577 C677.9547092 1220.42750783 665.47077152 1220.4301514 652.98683167 1220.43541336 C651.80514342 1220.43590856 651.80514342 1220.43590856 650.59958269 1220.43641377 C647.3911455 1220.43776373 644.18270831 1220.4391264 640.97427114 1220.44050587 C602.97033577 1220.45681674 564.96640103 1220.46319543 526.96246276 1220.46795374 C508.04302195 1220.47033598 489.12358149 1220.47403925 470.20414095 1220.47799084 C409.53399174 1220.49065568 348.86384254 1220.50143983 288.19369202 1220.5048313 C285.29342126 1220.50499354 282.39315049 1220.5051591 279.49287972 1220.50532568 C273.67622646 1220.50565948 267.8595732 1220.50598996 262.04291993 1220.50632024 C255.23286098 1220.50670714 248.42280202 1220.50709675 241.61274306 1220.5074913 C239.66364031 1220.50760372 237.71453755 1220.50771514 235.76543479 1220.50782556 C173.15470682 1220.51137569 110.54399032 1220.52645679 47.93326672 1220.5497633 C2.94922072 1220.56650159 -42.03482311 1220.58197855 -87.01887226 1220.58649826 C-87.94370353 1220.58659175 -88.86853479 1220.58668523 -89.82139124 1220.58678155 C-110.12232884 1220.58880046 -130.4232664 1220.58995662 -150.7242041 1220.59031014 C-157.98803082 1220.59044631 -165.25185754 1220.59065531 -172.51568425 1220.59090339 C-174.32278943 1220.59096495 -176.1298946 1220.59102327 -177.93699978 1220.59107834 C-206.7483928 1220.59199866 -235.55977385 1220.60197297 -264.37116293 1220.61653583 C-293.38546315 1220.63114259 -322.39974867 1220.63619936 -351.41405192 1220.62811628 C-355.42164159 1220.62700087 -359.42923127 1220.62599022 -363.43682098 1220.62504196 C-364.22243274 1220.62485199 -365.00804449 1220.62466203 -365.81746266 1220.6244663 C-378.26674906 1220.62173056 -390.71600834 1220.62908134 -403.16528884 1220.64061533 C-415.4010314 1220.65174233 -427.63673555 1220.65220123 -439.87247869 1220.64124514 C-446.42016974 1220.63567552 -452.96778544 1220.63522549 -459.51547077 1220.64775386 C-465.46839335 1220.65904963 -471.42114404 1220.656616 -477.37406052 1220.64308679 C-479.51775365 1220.64064492 -481.66145983 1220.64326435 -483.80513858 1220.65148327 C-486.71247243 1220.6619 -489.61919982 1220.65381771 -492.52651185 1220.64117169 C-493.76661441 1220.65228444 -493.76661441 1220.65228444 -495.03176956 1220.66362168 C-509.0744624 1220.53530591 -520.86056436 1213.89874527 -530.67849731 1204.20492554 C-577.78875756 1155.80206927 -587.62903989 1074.80104563 -592.05349731 1010.26742554 C-592.12407349 1009.26034546 -592.19464966 1008.25326538 -592.2673645 1007.21566772 C-593.14346741 994.22245903 -593.05349731 981.31173769 -593.05349731 968.26742554 C-422.77349731 968.26742554 -252.49349731 968.26742554 -77.05349731 968.26742554 C-77.09990356 903.5680896 -77.14630981 838.86875366 -77.19412231 772.20883179 C-77.21333163 733.75702341 -77.23226903 695.30521876 -77.24615717 656.85340869 C-77.25456961 633.62079257 -77.26320713 610.38817654 -77.27241434 587.15556072 C-77.27322192 585.11197947 -77.27402263 583.06839823 -77.27482167 581.02481698 C-77.28707877 549.74219715 -77.30267725 518.45958356 -77.32815552 487.17697144 C-77.32870311 486.50454526 -77.32925071 485.83211908 -77.3298149 485.13931635 C-77.33866408 474.29821674 -77.34779864 463.45711737 -77.35697108 452.61601804 C-77.39534515 407.25342357 -77.42091783 361.89083777 -77.42915727 316.52822612 C-77.43030989 310.21613832 -77.43161244 303.90405056 -77.43300629 297.59196281 C-77.43341082 295.72850368 -77.43341082 295.72850368 -77.43382354 293.8273989 C-77.4385499 273.83188861 -77.4571008 253.83641391 -77.48082545 233.84091813 C-77.50438313 213.73737365 -77.51336704 193.63386444 -77.50750282 173.53030664 C-77.50446118 161.58729265 -77.5125656 149.64440778 -77.53668749 137.7014171 C-77.55170826 129.71884875 -77.55213702 121.73636477 -77.54082457 113.75379055 C-77.53479713 109.20837937 -77.53499653 104.66321207 -77.55303004 100.11782724 C-77.56934702 95.97344746 -77.56685295 91.82949935 -77.55005722 87.68512535 C-77.54722657 86.20398643 -77.55094005 84.72281471 -77.56243829 83.24171771 C-77.74302718 58.38106327 -69.31605909 37.16048169 -52.30349731 19.01742554 C-37.55819161 4.79792143 -19.93290827 -0.05207148 0 0 Z " fill="#2E318B" transform="translate(593.0534973144531,-0.267425537109375)"/>
<path d="M0 0 C23.1927142 -0.09367221 46.38539696 -0.164091 69.57826233 -0.20724869 C80.34846339 -0.22782514 91.11854653 -0.25585119 101.88867188 -0.30175781 C111.28199949 -0.34177669 120.67524165 -0.3674685 130.06865215 -0.37635398 C135.03689346 -0.38154335 140.00489042 -0.39363647 144.97305298 -0.42292023 C149.66146426 -0.45032782 154.34953348 -0.45839449 159.03801727 -0.45243073 C160.74707659 -0.45351974 162.45614888 -0.46132126 164.16513824 -0.4768219 C184.7448534 -0.65412422 202.2604227 4.04901103 218 18 C218.61359375 18.51949219 219.2271875 19.03898437 219.859375 19.57421875 C225.85627651 25.03470017 229.8603832 32.1087081 234 39 C234.42410156 39.68835937 234.84820313 40.37671875 235.28515625 41.0859375 C240.99493952 51.3034444 244.12581306 64.91383407 244.1241985 76.50319326 C244.12644579 77.80388567 244.12869308 79.10457807 244.13100848 80.4446854 C244.12844294 81.88401902 244.12578602 83.32335248 244.12304783 84.76268578 C244.12378758 86.30115335 244.12496629 87.83962076 244.12654433 89.3780877 C244.12961779 93.62173541 244.12643453 97.86535923 244.12226619 102.10900517 C244.11883617 106.71961311 244.121202 111.33021859 244.12284368 115.94082701 C244.12491938 124.02667168 244.12327031 132.112509 244.11920547 140.19835281 C244.11317795 152.22176493 244.11286897 164.2451724 244.11374746 176.26858575 C244.11506237 196.49249826 244.11171613 216.7164075 244.10573006 236.94031906 C244.09981671 256.9697814 244.09596485 276.99924239 244.09487724 297.0287056 C244.0948085 298.27323257 244.09473976 299.51775954 244.09466894 300.79999945 C244.09433062 307.12010603 244.09402923 313.44021261 244.09374207 319.76031919 C244.09164064 364.54675666 244.08490123 409.3331925 244.07543945 454.11962891 C244.0731478 464.97664387 244.07087244 475.83365884 244.06866455 486.69067383 C244.0685276 487.36402283 244.06839065 488.03737184 244.06824955 488.73112535 C244.06190669 520.0273963 244.05819105 551.3236674 244.05513173 582.61993882 C244.05493116 584.66749206 244.05472886 586.71504531 244.05452599 588.76259856 C244.05218911 612.35754085 244.05001183 635.95248315 244.04788104 659.54742546 C244.03849055 762.36495199 244.01842094 865.18247389 244 968 C414.28 968 584.56 968 760 968 C758.28651159 1034.82604805 752.97521147 1104.89874305 723 1166 C722.6596875 1166.69448242 722.319375 1167.38896484 721.96875 1168.10449219 C711.27429357 1189.62917451 696.78638098 1209.51628278 674 1219 C670.15116643 1219.95859456 666.56506977 1220.11642213 662.60546875 1220.09765625 C660.80239258 1220.09282227 660.80239258 1220.09282227 658.96289062 1220.08789062 C657.71701172 1220.07951172 656.47113281 1220.07113281 655.1875 1220.0625 C653.92228516 1220.05798828 652.65707031 1220.05347656 651.35351562 1220.04882812 C648.2356289 1220.03706251 645.11783867 1220.02062272 642 1220 C643.64274739 1215.66481905 645.86113091 1212.09808957 648.5 1208.3125 C659.64053636 1191.849961 667.62224898 1174.43087039 675 1156 C675.42643799 1154.94852783 675.85287598 1153.89705566 676.29223633 1152.8137207 C679.4177917 1144.93923172 681.89119446 1136.99893795 684.0625 1128.8125 C684.23364319 1128.17025482 684.40478638 1127.52800964 684.58111572 1126.86630249 C688.05672224 1113.72314223 690.38660566 1100.49646117 692 1087 C692.08573273 1086.33301086 692.17146545 1085.66602173 692.25979614 1084.9788208 C693.83054878 1072.67772929 694.28675227 1060.54798982 694.20581055 1048.15234375 C694.18725302 1045.21085128 694.18530385 1042.26967067 694.18554688 1039.328125 C694.18063989 1037.43228896 694.17481518 1035.53645503 694.16796875 1033.640625 C694.16629951 1032.34055511 694.16629951 1032.34055511 694.16459656 1031.01422119 C694.15502678 1029.78563385 694.15502678 1029.78563385 694.14526367 1028.53222656 C694.14145187 1027.82342346 694.13764008 1027.11462036 694.13371277 1026.38433838 C693.95650412 1023.2243905 693.4592219 1020.13000086 693 1017 C692.06918421 1016.99576806 691.13836842 1016.99153612 690.17934608 1016.98717594 C659.9945442 1016.8497913 629.80976458 1016.70784592 599.625 1016.5625 C598.46487617 1016.55691952 597.30475233 1016.55133904 596.10947323 1016.54558945 C486.66448897 1016.01867875 486.66448897 1016.01867875 432.61372375 1015.4693985 C376.86894309 1014.90550661 321.12186456 1014.69271574 265.375 1014.4375 C263.54448011 1014.42911417 263.54448011 1014.42911417 261.67698002 1014.42055893 C230.11800539 1014.27609961 198.55901238 1014.13595501 167 1014 C166.93794131 968.77634924 167.14194382 923.55459987 167.35934448 878.33157206 C167.37510989 875.03955425 167.3907072 871.74753568 167.40625 868.45551682 C167.69613812 807.09486278 168.05319172 745.7348603 168.4765625 684.375 C168.48182319 683.61251122 168.48708387 682.85002244 168.49250397 682.06442794 C168.69735224 652.38870835 168.90682896 622.71302135 169.11698914 593.03733898 C169.25449973 573.61994982 169.39149147 554.20255709 169.52734375 534.78515625 C169.53528414 533.65079344 169.53528414 533.65079344 169.54338494 532.49351421 C169.94236558 475.48082629 170.27240185 418.46798256 170.54819107 361.45455551 C170.62616706 345.35381332 170.70515087 329.25307598 170.78515625 313.15234375 C170.7895542 312.26613767 170.79395215 311.37993159 170.79848337 310.46687078 C170.98308787 273.33172717 171.21618569 236.19701887 171.5 199.0625 C171.50513107 198.39068553 171.51026215 197.71887107 171.51554871 197.02669859 C171.84741034 153.68223754 172.29779509 110.34014205 173 67 C172.21165268 67.0702388 171.42330536 67.1404776 170.61106873 67.21284485 C141.54955314 69.73214592 110.34771513 69.24297665 82 62 C81.19336914 61.79922852 80.38673828 61.59845703 79.55566406 61.39160156 C56.29926679 55.46099181 35.19543289 44.90740218 18 28 C17.24074219 27.25363281 16.48148438 26.50726562 15.69921875 25.73828125 C11.07150479 20.90275976 7.39167895 15.7667868 3.9375 10.0625 C3.54296631 9.4113623 3.14843262 8.76022461 2.74194336 8.08935547 C0 3.39186523 0 3.39186523 0 0 Z " fill="#008ED6" transform="translate(715,0)"/>
</svg>
